<svg width="16" height="16" viewBox="0 0 16 16" fill="none" xmlns="http://www.w3.org/2000/svg">
<path fill-rule="evenodd" clip-rule="evenodd" d="M2.16683 1.95825C2.05177 1.95825 1.9585 2.05153 1.9585 2.16659V5.49992C1.9585 5.61498 2.05177 5.70825 2.16683 5.70825H5.50016C5.61522 5.70825 5.7085 5.61498 5.7085 5.49992V2.16659C5.7085 2.05153 5.61522 1.95825 5.50016 1.95825H2.16683ZM0.708496 2.16659C0.708496 1.36117 1.36141 0.708252 2.16683 0.708252H5.50016C6.30558 0.708252 6.9585 1.36117 6.9585 2.16659V5.49992C6.9585 6.30533 6.30558 6.95825 5.50016 6.95825H2.16683C1.36141 6.95825 0.708496 6.30533 0.708496 5.49992V2.16659Z" fill="white"/>
<path fill-rule="evenodd" clip-rule="evenodd" d="M10.5002 1.95825C10.3851 1.95825 10.2918 2.05153 10.2918 2.16659V5.49992C10.2918 5.61498 10.3851 5.70825 10.5002 5.70825H13.8335C13.9486 5.70825 14.0418 5.61498 14.0418 5.49992V2.16659C14.0418 2.05153 13.9486 1.95825 13.8335 1.95825H10.5002ZM9.04183 2.16659C9.04183 1.36117 9.69475 0.708252 10.5002 0.708252H13.8335C14.6389 0.708252 15.2918 1.36117 15.2918 2.16659V5.49992C15.2918 6.30533 14.6389 6.95825 13.8335 6.95825H10.5002C9.69475 6.95825 9.04183 6.30533 9.04183 5.49992V2.16659Z" fill="white"/>
<path fill-rule="evenodd" clip-rule="evenodd" d="M2.16683 10.2916C2.05177 10.2916 1.9585 10.3849 1.9585 10.4999V13.8333C1.9585 13.9483 2.05177 14.0416 2.16683 14.0416H5.50016C5.61522 14.0416 5.7085 13.9483 5.7085 13.8333V10.4999C5.7085 10.3849 5.61522 10.2916 5.50016 10.2916H2.16683ZM0.708496 10.4999C0.708496 9.6945 1.36141 9.04158 2.16683 9.04158H5.50016C6.30558 9.04158 6.9585 9.6945 6.9585 10.4999V13.8333C6.9585 14.6387 6.30558 15.2916 5.50016 15.2916H2.16683C1.36141 15.2916 0.708496 14.6387 0.708496 13.8333V10.4999Z" fill="white"/>
<path fill-rule="evenodd" clip-rule="evenodd" d="M10.5002 10.2916C10.3851 10.2916 10.2918 10.3849 10.2918 10.4999V13.8333C10.2918 13.9483 10.3851 14.0416 10.5002 14.0416H13.8335C13.9486 14.0416 14.0418 13.9483 14.0418 13.8333V10.4999C14.0418 10.3849 13.9486 10.2916 13.8335 10.2916H10.5002ZM9.04183 10.4999C9.04183 9.6945 9.69475 9.04158 10.5002 9.04158H13.8335C14.6389 9.04158 15.2918 9.6945 15.2918 10.4999V13.8333C15.2918 14.6387 14.6389 15.2916 13.8335 15.2916H10.5002C9.69475 15.2916 9.04183 14.6387 9.04183 13.8333V10.4999Z" fill="white"/>
</svg>
